<?xml version="1.0" standalone="no"?>
<!DOCTYPE svg PUBLIC "-//W3C//DTD SVG 20010904//EN"
 "http://www.w3.org/TR/2001/REC-SVG-20010904/DTD/svg10.dtd">
<svg version="1.0" xmlns="http://www.w3.org/2000/svg"
 width="3600.000000pt" height="1440.000000pt" viewBox="0 0 3600.000000 1440.000000"
 preserveAspectRatio="xMidYMid meet">
<metadata>
Created by potrace 1.16, written by Peter Selinger 2001-2019
</metadata>
<g transform="translate(0.000000,1440.000000) scale(0.100000,-0.100000)"
fill="#000000" stroke="none">
<path d="M28380 10799 c-767 -21 -1419 -175 -1911 -450 -882 -493 -1347 -1360
-1439 -2684 -13 -193 -13 -737 0 -930 64 -922 305 -1610 743 -2121 514 -599
1291 -927 2377 -1004 187 -13 753 -13 940 0 678 48 1244 196 1681 441 881 493
1346 1359 1439 2679 13 187 13 753 0 940 -77 1090 -413 1881 -1015 2387 -644
541 -1538 776 -2815 742z m-775 -1733 c142 -23 291 -60 435 -108 137 -47 396
-171 503 -242 38 -25 71 -46 74 -46 3 0 46 25 96 57 547 338 1207 445 1832
296 169 -40 485 -155 485 -177 0 -35 -36 -265 -55 -346 -153 -678 -602 -1268
-1204 -1584 l-102 -53 -3 -214 c-3 -240 -18 -359 -70 -569 -83 -332 -243 -652
-463 -925 -101 -125 -288 -307 -415 -404 l-98 -74 -92 70 c-396 299 -680 693
-838 1163 -82 245 -114 450 -115 731 l0 215 -100 54 c-699 381 -1159 1055
-1255 1845 -10 78 -9 91 5 101 8 6 73 34 143 62 202 81 421 136 650 162 113
13 469 4 587 -14z"/>
<path d="M27095 8579 c-118 -12 -315 -49 -315 -59 0 -15 56 -172 88 -250 106
-251 321 -535 542 -713 73 -59 246 -177 259 -177 3 0 21 30 40 66 49 95 129
177 210 217 61 30 73 32 166 32 88 -1 110 -5 177 -32 42 -17 115 -56 162 -87
82 -55 102 -76 72 -76 -7 0 -46 -16 -85 -36 -169 -85 -276 -254 -315 -502 -74
-467 31 -950 292 -1342 70 -105 206 -270 229 -277 17 -6 142 144 228 272 171
255 289 585 310 870 3 44 8 106 11 138 l5 57 -85 0 c-248 0 -397 106 -453 323
-16 65 -22 255 -8 316 l7 32 38 -35 c100 -90 259 -134 416 -116 159 18 386
111 577 236 300 196 529 456 678 769 47 98 125 312 118 320 -11 11 -220 45
-334 55 -289 25 -603 -27 -882 -146 -86 -36 -199 -93 -222 -110 -1 -1 9 -18
23 -37 39 -51 86 -163 97 -229 25 -157 -50 -311 -207 -419 -49 -33 -195 -109
-212 -109 -7 0 -7 14 0 43 14 59 3 191 -21 260 -47 133 -139 247 -296 365
-256 192 -525 309 -830 360 -144 25 -356 34 -480 21z"/>
<path d="M19080 8425 l0 -365 435 0 435 0 0 365 0 365 -435 0 -435 0 0 -365z"/>
<path d="M5625 8678 c-527 -21 -978 -194 -1294 -494 -373 -355 -551 -819 -551
-1439 -1 -310 29 -516 110 -756 225 -674 767 -1084 1556 -1175 196 -23 609
-15 779 14 422 74 749 226 1004 468 304 289 473 643 536 1117 17 136 20 482 5
622 -64 583 -331 1050 -760 1328 -367 237 -813 339 -1385 315z m391 -773 c464
-81 753 -360 865 -835 26 -109 37 -427 20 -552 -58 -405 -254 -696 -572 -847
-168 -80 -322 -111 -553 -111 -584 0 -966 296 -1097 850 -26 109 -37 427 -20
552 58 405 254 696 572 847 91 44 229 86 324 100 104 15 364 12 461 -4z"/>
<path d="M11770 8120 l0 -370 -170 0 -170 0 0 -340 0 -340 169 0 169 0 4 -777
c4 -691 7 -789 22 -873 66 -354 251 -540 591 -595 120 -20 356 -19 476 1 116
19 250 63 341 111 l68 35 0 335 c0 264 -3 334 -12 330 -169 -74 -289 -101
-431 -95 -117 4 -174 27 -214 87 -46 68 -46 72 -50 774 l-4 667 355 0 356 0 0
340 0 340 -355 0 -355 0 0 370 0 370 -395 0 -395 0 0 -370z"/>
<path d="M21920 7799 c-274 -13 -488 -67 -703 -177 -398 -202 -643 -562 -712
-1045 -20 -137 -19 -430 0 -566 100 -685 556 -1114 1275 -1201 121 -14 437
-12 561 5 759 101 1229 603 1267 1354 19 363 -33 645 -164 901 -261 511 -789
763 -1524 729z m375 -739 c260 -83 421 -268 479 -552 19 -89 21 -300 5 -398
-45 -281 -210 -482 -464 -567 -74 -25 -92 -27 -255 -28 -156 0 -183 3 -250 23
-263 83 -425 268 -484 554 -19 89 -21 300 -5 398 50 310 240 518 534 586 96
22 351 13 440 -16z"/>
<path d="M9855 7789 c-104 -14 -252 -68 -350 -130 -87 -54 -216 -170 -293
-264 l-42 -50 0 203 0 202 -415 0 -415 0 0 -1445 0 -1445 414 0 415 0 4 893
c4 981 3 958 66 1094 87 186 297 288 522 254 154 -23 280 -114 339 -246 61
-133 60 -119 60 -1099 l0 -896 415 0 415 0 0 1011 c0 1037 -1 1072 -41 1231
-53 212 -177 403 -339 524 -179 133 -481 198 -755 163z"/>
<path d="M18420 7788 c-156 -22 -303 -94 -422 -206 -86 -82 -147 -165 -215
-297 l-52 -100 -1 283 0 282 -405 0 -405 0 0 -1445 0 -1445 405 0 405 0 0 568
c1 858 14 990 126 1218 122 250 388 403 697 404 l87 0 0 375 0 375 -77 -1
c-43 -1 -107 -6 -143 -11z"/>
<path d="M14765 7770 c-229 -17 -424 -54 -613 -117 -88 -29 -271 -99 -279
-107 -3 -2 186 -588 191 -593 1 -2 63 17 137 41 270 89 480 122 723 113 166
-6 232 -19 335 -70 160 -78 261 -240 261 -418 l0 -67 -52 14 c-178 46 -558 81
-758 69 -254 -14 -427 -53 -596 -135 -244 -118 -389 -294 -461 -560 -26 -97
-25 -407 1 -505 72 -268 257 -463 532 -561 149 -53 246 -68 439 -68 183 0 280
14 429 61 142 45 307 137 403 226 l43 40 0 -137 0 -136 390 0 390 0 0 926 c0
1004 -1 1031 -56 1222 -31 111 -108 269 -168 349 -162 214 -411 347 -746 398
-119 19 -400 26 -545 15z m394 -1650 c102 -11 253 -43 314 -68 l39 -15 -4
-131 c-3 -118 -6 -137 -31 -191 -86 -185 -252 -292 -502 -326 -244 -32 -455
54 -526 216 -33 76 -31 191 6 273 87 193 339 280 704 242z"/>
<path d="M19100 6305 l0 -1445 415 0 415 0 0 1445 0 1445 -415 0 -415 0 0
-1445z"/>
</g>
</svg>
